<?xml version="1.0" standalone="no"?>
<!DOCTYPE svg PUBLIC "-//W3C//DTD SVG 20010904//EN"
 "http://www.w3.org/TR/2001/REC-SVG-20010904/DTD/svg10.dtd">
<svg version="1.0" xmlns="http://www.w3.org/2000/svg"
 width="500.000000pt" height="500.000000pt" viewBox="0 0 500.000000 500.000000"
 preserveAspectRatio="xMidYMid meet">
<metadata>
Created by potrace 1.14, written by Peter Selinger 2001-2017
</metadata>
<g transform="translate(0.000000,500.000000) scale(0.100000,-0.100000)"
fill="#000000" stroke="none">
<path d="M2288 4314 c-2 -1 -43 -5 -93 -8 -127 -8 -207 -20 -410 -62 -183 -37
-441 -119 -583 -185 -35 -16 -65 -29 -68 -29 -11 0 -210 -98 -294 -145 -134
-75 -387 -248 -456 -310 -6 -5 -25 -21 -43 -35 -42 -31 -86 -71 -185 -168
-102 -99 -130 -155 -124 -250 5 -79 26 -128 79 -181 53 -53 102 -74 181 -79
55 -3 76 0 120 20 29 14 67 38 84 54 200 190 327 288 543 423 284 178 708 328
1060 377 25 3 57 7 70 9 198 31 555 22 804 -20 15 -3 42 -7 60 -10 157 -27
603 -169 615 -197 2 -4 11 -8 19 -8 26 0 255 -124 364 -197 56 -37 109 -72
118 -78 9 -5 18 -12 21 -15 3 -3 32 -25 65 -50 65 -49 98 -77 217 -188 44 -39
97 -81 119 -92 141 -72 307 -13 375 133 49 106 24 224 -68 317 -105 106 -321
290 -398 339 -14 8 -27 18 -30 21 -4 5 -124 85 -175 117 -11 7 -51 30 -90 52
-38 22 -75 44 -82 50 -7 6 -14 11 -16 11 -3 0 -56 24 -118 54 -144 67 -287
126 -409 166 -92 31 -339 97 -390 105 -14 2 -38 6 -55 10 -65 13 -88 17 -185
30 -25 4 -67 9 -95 11 -51 6 -543 13 -547 8z"/>
<path d="M2245 3299 c-33 -5 -76 -11 -95 -13 -74 -11 -148 -25 -215 -41 -38
-9 -77 -18 -85 -20 -8 -2 -28 -8 -45 -15 -16 -6 -32 -12 -35 -12 -9 -1 -24 -6
-75 -25 -27 -10 -53 -18 -57 -19 -5 -1 -10 -3 -13 -4 -3 -1 -8 -3 -12 -4 -5
-1 -23 -10 -40 -19 -18 -10 -34 -17 -35 -16 -4 2 -188 -88 -213 -103 -196
-123 -328 -217 -406 -288 -151 -138 -189 -193 -190 -277 -3 -95 26 -161 92
-216 50 -42 97 -59 165 -59 75 0 132 24 194 82 25 23 62 56 84 73 21 18 45 38
53 46 21 20 119 91 198 143 62 40 164 92 275 140 76 33 264 88 350 103 14 2
36 7 50 10 152 32 543 26 658 -9 9 -3 35 -8 56 -12 22 -3 49 -9 60 -14 12 -4
24 -8 29 -9 4 0 8 -1 10 -2 4 -1 32 -8 55 -13 12 -3 27 -8 32 -11 5 -3 19 -8
30 -10 12 -2 35 -11 52 -20 17 -8 34 -15 39 -15 15 0 167 -75 239 -118 132
-80 223 -149 334 -254 107 -101 201 -132 302 -98 151 49 225 206 164 348 -21
49 -104 137 -209 222 -23 19 -53 43 -64 54 -72 61 -318 218 -407 258 -25 11
-78 36 -118 54 -41 19 -78 34 -83 34 -5 0 -17 4 -27 10 -46 26 -321 101 -417
114 -61 9 -123 18 -145 23 -45 9 -474 11 -535 2z"/>
<path d="M2347 2364 c-2 -2 -28 -6 -58 -9 -30 -3 -79 -12 -110 -20 -30 -8 -64
-16 -75 -18 -10 -2 -26 -7 -34 -10 -8 -3 -47 -17 -86 -30 -94 -33 -230 -105
-328 -175 -96 -69 -236 -202 -236 -225 0 -10 -4 -17 -8 -17 -9 0 -10 -9 -16
-90 -10 -139 103 -264 244 -271 84 -4 126 18 285 151 77 65 234 142 340 169
76 19 100 22 205 25 118 4 193 -5 295 -36 39 -12 72 -22 75 -23 15 -2 132 -63
170 -89 40 -26 157 -121 170 -137 11 -14 78 -47 110 -54 154 -34 303 77 314
235 4 56 -18 134 -50 175 -31 41 -167 157 -247 211 -80 53 -212 124 -232 124
-8 0 -15 4 -15 8 0 4 -21 14 -47 22 -52 14 -51 14 -73 23 -14 5 -50 14 -75 18
-5 1 -21 5 -34 10 -50 19 -162 31 -318 34 -89 2 -164 1 -166 -1z"/>
<path d="M2388 1296 c-104 -34 -189 -136 -204 -243 -9 -63 -9 -113 -1 -113 4
0 7 -9 7 -20 0 -64 92 -174 178 -213 68 -30 189 -30 257 1 81 37 147 110 175
197 16 47 16 156 0 184 -6 12 -8 21 -5 21 3 0 -7 19 -21 43 -88 142 -229 195
-386 143z"/>
</g>
</svg>
